<svg width="28" height="42" viewBox="0 0 28 42" fill="none" xmlns="http://www.w3.org/2000/svg">
<g id="Frame" filter="url(#filter0_d_2_2592)">
<path id="Vector" d="M15.0276 0.00255391C14.4786 -0.0364929 14.0024 0.376819 13.9635 0.9256L13.5999 6.04306H10.9727C10.818 6.04306 10.6655 6.07905 10.5272 6.14818C10.4122 6.24367 6.65552 7.60201 6.05952 12.0196H4.99609C4.44598 12.0196 4 12.4655 4 13.0156V17C4 17.5501 4.44598 17.9961 4.99609 17.9961H6.10846L7.77393 31.3824C7.96046 32.8747 9.2352 34 10.7391 34H17.1827C18.6865 34 19.9613 32.8747 20.1479 31.3818L21.8134 17.9961H22.9258C23.4759 17.9961 23.9219 17.5501 23.9219 17V13.0156C23.9219 12.4655 23.4759 12.0196 22.9258 12.0196H21.8623C21.2683 7.61569 17.4997 6.23531 17.3947 6.14818C17.2564 6.07899 17.1039 6.04299 16.9492 6.04299H15.5972L15.9507 1.06671C15.9896 0.517932 15.5764 0.0415344 15.0276 0.00255391ZM11.2078 8.03518H13.4584L13.1754 12.0196H8.07502C8.61291 9.08214 11.1515 8.08133 11.2078 8.03518ZM12.5112 21.3476C11.4514 21.6212 10.2798 21.8491 8.6066 21.9391L8.11599 17.9961H12.7493L12.5112 21.3476ZM18.1712 31.1352C18.109 31.6327 17.6841 32.0078 17.1828 32.0078H10.7392C10.2379 32.0078 9.81293 31.6328 9.75084 31.1358L8.85316 23.9206C10.2938 23.8354 11.4012 23.6533 12.3631 23.4339L11.9713 28.9489C11.9324 29.4977 12.3456 29.9741 12.8943 30.0131C13.4454 30.0518 13.9196 29.637 13.9585 29.0901L14.3988 22.8914C15.7596 22.5033 17.0946 22.1421 19.305 22.0223L18.1712 31.1352ZM19.5546 20.0159C17.3158 20.1094 15.8483 20.428 14.5487 20.7809L14.7465 17.996H19.8059L19.5546 20.0159ZM21.9297 16.0039H5.99219V14.0117H21.9297V16.0039ZM16.7141 8.03518C16.7987 8.10464 19.2988 9.02636 19.8468 12.0196H15.1726L15.4556 8.03518H16.7141Z" fill="black"/>
</g>
<defs>
<filter id="filter0_d_2_2592" x="0" y="0" width="27.9219" height="42" filterUnits="userSpaceOnUse" color-interpolation-filters="sRGB">
<feFlood flood-opacity="0" result="BackgroundImageFix"/>
<feColorMatrix in="SourceAlpha" type="matrix" values="0 0 0 0 0 0 0 0 0 0 0 0 0 0 0 0 0 0 127 0" result="hardAlpha"/>
<feOffset dy="4"/>
<feGaussianBlur stdDeviation="2"/>
<feComposite in2="hardAlpha" operator="out"/>
<feColorMatrix type="matrix" values="0 0 0 0 0 0 0 0 0 0 0 0 0 0 0 0 0 0 0.25 0"/>
<feBlend mode="normal" in2="BackgroundImageFix" result="effect1_dropShadow_2_2592"/>
<feBlend mode="normal" in="SourceGraphic" in2="effect1_dropShadow_2_2592" result="shape"/>
</filter>
</defs>
</svg>
