<!-- icon666.com - MILLIONS vector ICONS FREE --><svg width='70%' height='70%' enable-background="new 0 0 512 512" viewBox="0 0 512 512" xmlns="http://www.w3.org/2000/svg"><g><g><path d="m437.225 91.067c7.846 0 15.363-6.899 15-15-.364-8.127-6.591-15-15-15-7.846 0-15.363 6.899-15 15 .364 8.127 6.591 15 15 15z"></path></g><g><path d="m377.185 91.067c7.846 0 15.363-6.899 15-15-.364-8.127-6.591-15-15-15-7.846 0-15.363 6.899-15 15 .364 8.127 6.591 15 15 15z"></path></g><g><path d="m317.145 91.067c7.846 0 15.363-6.899 15-15-.364-8.127-6.591-15-15-15-7.846 0-15.363 6.899-15 15 .364 8.127 6.591 15 15 15z"></path></g><g><path d="m487 .106h-462c-13.785 0-25 11.215-25 25v461.787c0 13.785 11.215 25 25 25h462c13.785 0 25-11.215 25-25v-461.787c0-13.785-11.215-25-25-25zm-5 30v91.515h-452v-91.515zm-452 451.788v-330.06h452v330.06z"></path><path d="m73.46 90.971h121.165c8.284 0 15-6.716 15-15s-6.716-15-15-15h-121.165c-8.284 0-15 6.716-15 15s6.716 15 15 15z"></path><path d="m86.169 328.008h46.82c-.057 7.578-.114 14.836-.171 21.417-.072 8.283 6.586 15.057 14.87 15.128.044.001.087.001.132.001 8.223-.001 14.926-6.631 14.996-14.871.045-5.187.108-12.792.176-21.675h.935c8.284 0 15-6.716 15-15s-6.716-15-15-15h-.732c.172-29.759.251-60.511-.118-64.944-.859-10.3-7.081-18.711-15.852-21.427-8.72-2.699-17.959.641-24.719 8.935-7.097 8.707-39.659 67.407-49.471 85.19-2.563 4.646-2.481 10.302.217 14.872s7.61 7.374 12.917 7.374zm47.169-68.131c-.015 10.842-.072 24.244-.151 38.131h-21.521c7.888-14.094 15.557-27.602 21.672-38.131z"></path><path d="m425.831 298.008h-.732c.172-29.759.25-60.511-.119-64.942-.857-10.3-7.079-18.711-15.849-21.428-8.718-2.698-17.961.64-24.722 8.934-7.097 8.707-39.659 67.407-49.47 85.19-2.563 4.646-2.481 10.303.217 14.872 2.698 4.57 7.61 7.374 12.917 7.374h46.82c-.057 7.577-.114 14.836-.171 21.417-.072 8.283 6.586 15.057 14.87 15.128.044.001.087.001.132.001 8.223-.001 14.926-6.631 14.996-14.871.045-5.187.108-12.792.176-21.675h.935c8.284 0 15-6.716 15-15s-6.716-15-15-15zm-30.74 0h-21.521c7.889-14.094 15.558-27.603 21.673-38.132-.015 10.843-.073 24.242-.152 38.132z"></path><path d="m256 367.081c28.016 0 50.808-22.792 50.808-50.808v-57.265c0-28.016-22.792-50.808-50.808-50.808s-50.808 22.792-50.808 50.808v57.265c0 28.016 22.792 50.808 50.808 50.808zm-20.808-108.072c0-11.474 9.334-20.808 20.808-20.808s20.808 9.334 20.808 20.808v57.265c0 11.474-9.334 20.808-20.808 20.808s-20.808-9.334-20.808-20.808z"></path><path d="m425.831 395.451h-339.662c-8.284 0-15 6.716-15 15s6.716 15 15 15h339.662c8.284 0 15-6.716 15-15s-6.716-15-15-15z"></path></g></g></svg>