<svg width="23" height="19" viewBox="0 0 23 19" fill="none" xmlns="http://www.w3.org/2000/svg">
<g id="Arrow - Right">
<path id="Stroke 1" d="M0.333374 9.63428C0.333374 9.12802 0.709579 8.70962 1.19768 8.64341L1.33337 8.63428L21.3334 8.63428C21.8857 8.63428 22.3334 9.08199 22.3334 9.63428C22.3334 10.1405 21.9572 10.5589 21.4691 10.6251L21.3334 10.6343L1.33337 10.6343C0.781089 10.6343 0.333374 10.1866 0.333374 9.63428Z" fill="white"/>
<path id="Stroke 3" d="M12.5614 2.31035C12.17 1.92066 12.1687 1.2875 12.5583 0.896137C12.9126 0.540352 13.4681 0.50688 13.8602 0.796509L13.9726 0.893091L22.0392 8.92509C22.3961 9.28041 22.4285 9.83789 22.1366 10.23L22.0393 10.3423L13.9726 18.3756C13.5813 18.7653 12.9481 18.764 12.5584 18.3727C12.2041 18.0169 12.173 17.4613 12.4643 17.0704L12.5613 16.9585L19.916 9.63332L12.5614 2.31035Z" fill="white"/>
</g>
</svg>
